<svg width="17" height="20" viewBox="0 0 17 20" fill="none" xmlns="http://www.w3.org/2000/svg">
<path d="M12.611 0H4.37855C1.96196 0 0 2.06922 0 4.62163V15.0968C0 17.6492 1.96196 19.7184 4.37855 19.7184H12.611C15.0311 19.7184 16.9931 17.6492 16.9931 15.0968V4.62163C16.9931 2.06922 15.0311 0 12.611 0ZM4.65832 4.48515H7.575C7.90374 4.48515 8.17304 4.76547 8.17304 5.11219C8.17304 5.4589 7.90374 5.73923 7.575 5.73923H4.65832C4.32958 5.73923 4.06029 5.4589 4.06029 5.11219C4.06029 4.76547 4.32958 4.48515 4.65832 4.48515ZM12.3348 14.5436H4.65832C4.32958 14.5436 4.06029 14.2595 4.06029 13.9128C4.06029 13.5661 4.32958 13.2858 4.65832 13.2858H12.3348C12.6635 13.2858 12.9293 13.5661 12.9293 13.9128C12.9293 14.2595 12.6635 14.5436 12.3348 14.5436ZM12.3348 10.1395H4.65832C4.32958 10.1395 4.06029 9.85922 4.06029 9.51251C4.06029 9.16579 4.32958 8.88547 4.65832 8.88547H12.3348C12.6635 8.88547 12.9293 9.16579 12.9293 9.51251C12.9293 9.85922 12.6635 10.1395 12.3348 10.1395Z" fill="#707B8C"/>
</svg>
