<svg width="20" height="15" viewBox="0 0 20 15" fill="none" xmlns="http://www.w3.org/2000/svg">
<g id="Group 12579 1" clip-path="url(#clip0_809_3804)">
<g id="Group">
<g id="Group 12798">
<path id="Path 5051" d="M10.8377 8.22046L9.55568 9.53713C9.59744 9.53296 9.6392 9.53296 9.68513 9.53296C10.0605 9.53255 10.4276 9.64321 10.7399 9.85096C11.0523 10.0587 11.2959 10.3542 11.4399 10.7001C11.584 11.046 11.622 11.4267 11.5491 11.7941C11.4763 12.1615 11.2959 12.4992 11.0308 12.7643C10.7656 13.0295 10.4276 13.2102 10.0595 13.2837C9.69145 13.3571 9.30979 13.3201 8.96283 13.1771C8.61586 13.0341 8.31917 12.7917 8.11027 12.4806C7.90138 12.1694 7.78966 11.8033 7.78925 11.4288C7.78856 11.4037 7.78995 11.3786 7.79342 11.3538L6.50305 12.6746C6.71148 13.2063 7.05032 13.6772 7.48852 14.0443C7.92671 14.4114 8.45024 14.6629 9.01111 14.7757C9.57199 14.8885 10.1523 14.859 10.6988 14.69C11.2453 14.521 11.7405 14.2178 12.1391 13.8082C12.5377 13.3986 12.8269 12.8958 12.9801 12.3457C13.1334 11.7957 13.1458 11.2161 13.0163 10.66C12.8868 10.104 12.6195 9.58924 12.2388 9.16301C11.8582 8.73678 11.3764 8.41269 10.8377 8.22046Z" fill="#8B8B8B"/>
<path id="Path 5052" d="M11.5518 5.69549L12.7837 4.42882L12.7661 4.42424L16.172 0.924241C16.2898 0.807049 16.356 0.647992 16.3562 0.482061C16.3564 0.316131 16.2905 0.156919 16.1731 0.0394499C16.0556 -0.0780189 15.8962 -0.144122 15.7299 -0.144317C15.5636 -0.144513 15.404 -0.0787843 15.2863 0.0384082L11.3146 4.12174C11.0264 4.08007 10.7366 4.04716 10.4451 4.02882V0.595491C10.4451 0.394369 10.3651 0.201484 10.2225 0.0592689C10.08 -0.0829462 9.88667 -0.162842 9.6851 -0.162842C9.48353 -0.162842 9.29021 -0.0829462 9.14768 0.0592689C9.00515 0.201484 8.92508 0.394369 8.92508 0.595491V4.02882C7.68466 4.10679 6.46563 4.38835 5.31705 4.86216L2.90752 2.45382C2.76508 2.3139 2.57315 2.23557 2.37327 2.23576C2.17338 2.23596 1.98161 2.31468 1.83945 2.45488C1.69728 2.59508 1.61616 2.7855 1.61364 2.98492C1.61111 3.18435 1.68738 3.37675 1.82595 3.52049C1.83012 3.52466 1.83012 3.52466 1.8343 3.52466L3.88887 5.57882C2.25099 6.54073 0.920231 7.94655 0.0511641 9.63299C-0.0308192 9.81094 -0.0404984 10.0137 0.0241595 10.1986C0.0888175 10.3835 0.222781 10.5362 0.397911 10.6247C0.573042 10.7131 0.775711 10.7304 0.963349 10.6729C1.15099 10.6154 1.30899 10.4876 1.40417 10.3163C2.81147 7.53299 5.95179 5.52049 9.6851 5.52049C9.77238 5.52049 9.8559 5.53007 9.94234 5.53216L1.94788 13.7538C1.83032 13.871 1.76421 14.0299 1.76409 14.1957C1.76397 14.3614 1.82986 14.5205 1.94726 14.6378C2.06466 14.7551 2.22395 14.8211 2.39009 14.8212C2.55624 14.8213 2.71562 14.7555 2.83319 14.6384L11.5321 5.69257L11.5518 5.69549Z" fill="#8B8B8B"/>
<path id="Path 5053" d="M19.3231 9.63301C18.4553 7.94573 17.1242 6.53962 15.4854 5.57885L17.54 3.52468C17.6829 3.38323 17.7636 3.19095 17.7644 2.99013C17.7652 2.78931 17.686 2.5964 17.5442 2.45385C17.4024 2.31129 17.2097 2.23077 17.0084 2.22999C16.8072 2.2292 16.6138 2.30823 16.471 2.44968L15.7903 3.12885L12.9381 6.06218C15.1033 6.77639 16.906 8.30165 17.966 10.3163C18.0568 10.4959 18.2154 10.6321 18.4069 10.695C18.5983 10.7579 18.807 10.7424 18.987 10.6518C19.167 10.5611 19.3035 10.4029 19.3665 10.2119C19.4296 10.0208 19.414 9.81259 19.3231 9.63301Z" fill="#8B8B8B"/>
</g>
</g>
</g>
<defs>
<clipPath id="clip0_809_3804">
<rect width="20" height="15" fill="white"/>
</clipPath>
</defs>
</svg>
