<svg width="15" height="20" viewBox="0 0 15 20" fill="none" xmlns="http://www.w3.org/2000/svg">
<path d="M11.7927 0H3.02861C1.35693 0 0 1.43112 0 3.1942V19.1135C0 19.4492 0.258804 19.7184 0.577052 19.7184L6.36497 16.7861C7.02595 16.4505 7.79535 16.4505 8.45632 16.7861L14.2442 19.7184C14.5625 19.7184 14.8178 19.4492 14.8178 19.1135V3.19051C14.8178 1.42743 13.4644 0 11.7927 0ZM10.9673 6.78674H3.85396C3.53571 6.78674 3.28041 6.51749 3.28041 6.18184C3.28041 5.84619 3.53571 5.57325 3.85396 5.57325H10.9673C11.2856 5.57325 11.5409 5.84619 11.5409 6.18184C11.5409 6.51749 11.2856 6.78674 10.9673 6.78674Z" fill="#707B8C"/>
</svg>
