<svg width="24" height="24" viewBox="0 0 24 24" fill="none" xmlns="http://www.w3.org/2000/svg">
<g id="vuesax/outline/arrow-right">
<g id="arrow-right">
<path id="Vector" d="M15.0904 20.67C15.2804 20.67 15.4704 20.6 15.6204 20.45C15.9104 20.16 15.9104 19.68 15.6204 19.39L9.10039 12.87C8.62039 12.39 8.62039 11.61 9.10039 11.13L15.6204 4.61002C15.9104 4.32002 15.9104 3.84002 15.6204 3.55002C15.3304 3.26002 14.8504 3.26002 14.5604 3.55002L8.04039 10.07C7.53039 10.58 7.24039 11.27 7.24039 12C7.24039 12.73 7.52039 13.42 8.04039 13.93L14.5604 20.45C14.7104 20.59 14.9004 20.67 15.0904 20.67Z" fill="#707B8C"/>
</g>
</g>
</svg>
