<svg width="20" height="20" viewBox="0 0 20 20" fill="none" xmlns="http://www.w3.org/2000/svg">
<g id="icon / cloud-upload">
<g id="icon">
<path d="M4.99967 7.91699C4.99967 5.38569 7.0517 3.33366 9.58301 3.33366C11.8253 3.33366 13.693 4.94464 14.0889 7.07256C14.1444 7.37095 14.3577 7.61557 14.6458 7.71112C16.3048 8.26133 17.4997 9.8257 17.4997 11.667C17.4997 13.9682 15.6342 15.8337 13.333 15.8337C12.8728 15.8337 12.4997 16.2068 12.4997 16.667C12.4997 17.1272 12.8728 17.5003 13.333 17.5003C16.5547 17.5003 19.1663 14.8887 19.1663 11.667C19.1663 9.25661 17.7049 7.18947 15.6216 6.29997C14.9087 3.63199 12.4761 1.66699 9.58301 1.66699C6.13123 1.66699 3.33301 4.46521 3.33301 7.91699C3.33301 8.00056 3.33465 8.08378 3.33791 8.16662C1.84174 9.02982 0.833008 10.6465 0.833008 12.5003C0.833008 15.2617 3.07158 17.5003 5.83301 17.5003C6.29324 17.5003 6.66634 17.1272 6.66634 16.667C6.66634 16.2068 6.29324 15.8337 5.83301 15.8337C3.99206 15.8337 2.49967 14.3413 2.49967 12.5003C2.49967 11.1192 3.33982 9.93239 4.54022 9.42673C4.88758 9.2804 5.09348 8.91913 5.04234 8.54569C5.01424 8.34054 4.99967 8.13069 4.99967 7.91699Z" fill="#707B8C"/>
<path d="M9.44604 11.8775C9.76178 11.5968 10.2376 11.5968 10.5533 11.8775L11.8033 12.9886C12.1473 13.2944 12.1783 13.8211 11.8725 14.1651C11.605 14.466 11.1684 14.5274 10.833 14.3333V18.3337C10.833 18.7939 10.4599 19.167 9.99967 19.167C9.53944 19.167 9.16634 18.7939 9.16634 18.3337V14.3333C8.83092 14.5274 8.39432 14.466 8.12683 14.1651C7.82107 13.8211 7.85205 13.2944 8.19604 12.9886L9.44604 11.8775Z" fill="#707B8C"/>
</g>
</g>
</svg>
