<svg width="26" height="21" viewBox="0 0 26 21" fill="none" xmlns="http://www.w3.org/2000/svg">
<path d="M3.23828 2.24121C2.88672 2.24121 2.61328 2.55371 2.61328 2.86621V17.8662C2.61328 18.2178 2.88672 18.4912 3.23828 18.4912H6.36328V15.9912C6.36328 14.9756 7.18359 14.1162 8.23828 14.1162C9.25391 14.1162 10.1133 14.9756 10.1133 15.9912V18.4912H11.9883C12.0664 19.2334 12.3398 19.8584 12.7695 20.3662H3.23828C1.83203 20.3662 0.738281 19.2725 0.738281 17.8662V2.86621C0.738281 1.49902 1.83203 0.366211 3.23828 0.366211H13.2383C14.6055 0.366211 15.7383 1.49902 15.7383 2.86621H15.4258C14.8398 2.86621 14.332 3.02246 13.8633 3.25684V2.86621C13.8633 2.55371 13.5508 2.24121 13.2383 2.24121H3.23828ZM12.3008 4.42871V4.89746C12.0664 5.32715 11.9883 5.7959 11.9883 6.30371V6.85059C11.8711 6.92871 11.7539 6.92871 11.6758 6.92871H9.80078C9.44922 6.92871 9.17578 6.65527 9.17578 6.30371V4.42871C9.17578 4.11621 9.44922 3.80371 9.80078 3.80371H11.6758C11.9883 3.80371 12.3008 4.11621 12.3008 4.42871ZM11.6758 8.80371C11.7539 8.80371 11.8711 8.84277 11.9883 8.9209V11.8506C11.8711 11.9287 11.7539 11.9287 11.6758 11.9287H9.80078C9.44922 11.9287 9.17578 11.6553 9.17578 11.3037V9.42871C9.17578 9.11621 9.44922 8.80371 9.80078 8.80371H11.6758ZM4.17578 4.42871C4.17578 4.11621 4.44922 3.80371 4.80078 3.80371H6.67578C6.98828 3.80371 7.30078 4.11621 7.30078 4.42871V6.30371C7.30078 6.65527 6.98828 6.92871 6.67578 6.92871H4.80078C4.44922 6.92871 4.17578 6.65527 4.17578 6.30371V4.42871ZM4.17578 9.42871C4.17578 9.11621 4.44922 8.80371 4.80078 8.80371H6.67578C6.98828 8.80371 7.30078 9.11621 7.30078 9.42871V11.3037C7.30078 11.6553 6.98828 11.9287 6.67578 11.9287H4.80078C4.44922 11.9287 4.17578 11.6553 4.17578 11.3037V9.42871ZM15.7383 4.11621H23.2383C24.6055 4.11621 25.7383 5.24902 25.7383 6.61621V17.8662C25.7383 19.2725 24.6055 20.3662 23.2383 20.3662H15.7383C14.332 20.3662 13.2383 19.2725 13.2383 17.8662V6.61621C13.2383 5.24902 14.332 4.11621 15.7383 4.11621ZM16.3633 7.55371C15.8164 7.55371 15.4258 7.9834 15.4258 8.49121C15.4258 9.03809 15.8164 9.42871 16.3633 9.42871C16.8711 9.42871 17.3008 9.03809 17.3008 8.49121C17.3008 7.9834 16.8711 7.55371 16.3633 7.55371ZM15.4258 12.2412C15.4258 12.7881 15.8164 13.1787 16.3633 13.1787C16.8711 13.1787 17.3008 12.7881 17.3008 12.2412C17.3008 11.7334 16.8711 11.3037 16.3633 11.3037C15.8164 11.3037 15.4258 11.7334 15.4258 12.2412ZM16.3633 15.0537C15.8164 15.0537 15.4258 15.4834 15.4258 15.9912C15.4258 16.5381 15.8164 16.9287 16.3633 16.9287C16.8711 16.9287 17.3008 16.5381 17.3008 15.9912C17.3008 15.4834 16.8711 15.0537 16.3633 15.0537ZM18.8633 8.49121C18.8633 8.84277 19.1367 9.11621 19.4883 9.11621H23.2383C23.5508 9.11621 23.8633 8.84277 23.8633 8.49121C23.8633 8.17871 23.5508 7.86621 23.2383 7.86621H19.4883C19.1367 7.86621 18.8633 8.17871 18.8633 8.49121ZM19.4883 11.6162C19.1367 11.6162 18.8633 11.9287 18.8633 12.2412C18.8633 12.5928 19.1367 12.8662 19.4883 12.8662H23.2383C23.5508 12.8662 23.8633 12.5928 23.8633 12.2412C23.8633 11.9287 23.5508 11.6162 23.2383 11.6162H19.4883ZM18.8633 15.9912C18.8633 16.3428 19.1367 16.6162 19.4883 16.6162H23.2383C23.5508 16.6162 23.8633 16.3428 23.8633 15.9912C23.8633 15.6787 23.5508 15.3662 23.2383 15.3662H19.4883C19.1367 15.3662 18.8633 15.6787 18.8633 15.9912Z" fill="black"/>
</svg>
