<svg width="25" height="24" viewBox="0 0 25 24" fill="none" xmlns="http://www.w3.org/2000/svg">
<path d="M21 11.3V7.04001C21 3.01001 20.06 2 16.28 2H8.72C4.94 2 4 3.01001 4 7.04001V18.3C4 20.96 5.46001 21.59 7.23001 19.69L7.23999 19.68C8.05999 18.81 9.30999 18.88 10.02 19.83L11.03 21.18" stroke="#707B8C" stroke-width="1.25" stroke-linecap="round" stroke-linejoin="round"/>
<path d="M8.5 7H16.5" stroke="#707B8C" stroke-width="1.25" stroke-linecap="round" stroke-linejoin="round"/>
<path d="M9.5 11H15.5" stroke="#707B8C" stroke-width="1.25" stroke-linecap="round" stroke-linejoin="round"/>
<path d="M18.71 14.77L15.1701 18.31C15.0301 18.45 14.9 18.71 14.87 18.9L14.68 20.25C14.61 20.74 14.95 21.0801 15.44 21.0101L16.79 20.82C16.98 20.79 17.25 20.66 17.38 20.52L20.9201 16.9801C21.5301 16.3701 21.8201 15.6601 20.9201 14.7601C20.0301 13.8701 19.32 14.16 18.71 14.77Z" stroke="#707B8C" stroke-width="1.25" stroke-miterlimit="10" stroke-linecap="round" stroke-linejoin="round"/>
<path d="M18.2 15.28C18.5 16.36 19.34 17.2 20.42 17.5" stroke="#707B8C" stroke-width="1.25" stroke-miterlimit="10" stroke-linecap="round" stroke-linejoin="round"/>
</svg>
