<svg width="28" height="26" viewBox="0 0 28 26" fill="none" xmlns="http://www.w3.org/2000/svg">
<path d="M0.880021 7.4216C0.648096 7.4216 0.428377 7.32394 0.257485 7.15305C0.0865934 6.98216 0.00114736 6.76244 0.00114736 6.54272V2.75869C0.00114736 2.35587 0.0865934 1.95305 0.245279 1.59906C0.648096 0.683568 1.588 0.0366197 2.58894 0.0122066C3.16265 0 3.76077 0 4.34669 0H6.54387C6.92227 0 7.28847 0.268545 7.38612 0.622535C7.5204 1.02535 7.31288 1.50141 6.93448 1.6723C6.7758 1.75775 6.6049 1.78216 6.39739 1.78216H2.6988C2.45467 1.78216 2.22274 1.87981 2.05185 2.06291C1.88096 2.24601 1.7711 2.46573 1.78331 2.69765C1.78331 3.35681 1.78331 6.53052 1.78331 6.53052C1.79551 6.98216 1.4049 7.39718 0.95326 7.4216H0.880021ZM25.3664 7.38498C25.7204 7.27512 25.9889 6.92113 25.9889 6.54272C25.9889 5.26103 25.9889 3.97934 25.9889 2.69765C25.9889 1.97747 25.6838 1.25728 25.1589 0.769014C24.6706 0.280751 23.9871 0 23.2425 0H20.9354C20.4105 0 19.8734 0 19.3608 0.0122066C19.0678 0.0488263 18.7993 0.231925 18.665 0.50047C18.5063 0.805634 18.5673 1.22066 18.8115 1.477C18.9702 1.66009 19.2265 1.76995 19.5317 1.76995H23.3157C23.5476 1.76995 23.7796 1.86761 23.9627 2.0507C24.1458 2.2338 24.2312 2.46573 24.2312 2.68545C24.2312 3.41784 24.2312 6.27418 24.2312 6.27418C24.2312 6.5061 24.2312 6.72582 24.3288 6.92113C24.4631 7.21409 24.7927 7.4216 25.1223 7.4216C25.1955 7.4216 25.281 7.40939 25.3664 7.38498ZM8.15514 11.3399C8.74105 11.3399 9.32697 11.3399 9.91289 11.3399C10.6575 11.3277 11.3288 10.6685 11.3411 9.91174C11.3533 8.94742 11.3411 7.9831 11.3411 7.00657V5.99343C11.3533 5.62723 11.1946 5.24883 10.9138 4.96808C10.6331 4.68732 10.2669 4.51643 9.90068 4.51643H7.54481C6.95889 4.51643 6.38519 4.51643 5.81148 4.52864C5.27439 4.57747 4.76171 4.99249 4.59082 5.52958C4.50537 5.7493 4.51758 6.00563 4.51758 6.26197V7.83662C4.51758 8.52019 4.51758 9.21596 4.51758 9.89953C4.52979 10.6563 5.21335 11.3277 5.99457 11.3277L8.15514 11.3399ZM6.28753 6.28639H9.55889V9.55775H6.28753V6.28639ZM18.311 11.3399C18.8969 11.3399 19.4828 11.3399 20.0688 11.3277C20.8134 11.3155 21.4725 10.6441 21.4847 9.89953C21.4847 8.56901 21.4969 7.2507 21.4847 5.92019C21.4725 5.16338 20.7889 4.50423 20.0077 4.50423H17.5542C17.0293 4.50423 16.5044 4.50423 15.9918 4.51643C15.2838 4.58967 14.6857 5.21221 14.6734 5.92019C14.6734 6.61596 14.6734 9.55775 14.6734 9.55775C14.6734 9.85071 14.6734 10.1437 14.7955 10.4C15.0152 10.9371 15.5767 11.3155 16.1749 11.3155L18.311 11.3399ZM19.7148 6.28639V9.55775H16.4434V6.28639H19.7148ZM9.70537 21.4836C9.9495 21.4836 10.1448 21.4714 10.3279 21.3981C10.9138 21.2028 11.3411 20.6169 11.3288 19.9944V18.9812C11.3288 18.0169 11.3288 17.0526 11.3288 16.0883C11.3166 15.3437 10.6575 14.6723 9.90068 14.6601H6.20209C5.99457 14.6601 5.82368 14.6601 5.64058 14.7089C4.95702 14.8676 4.45655 15.5268 4.50537 16.2347V20.0066C4.50537 20.5681 4.83495 21.093 5.34763 21.3371C5.54293 21.4347 5.78706 21.4836 6.08002 21.4836H9.70537ZM6.28753 16.4423H9.55889V19.7136H6.28753V16.4423ZM18.0791 21.4836H20.0688C20.8011 21.4714 21.4603 20.8122 21.4847 20.0676C21.4847 19.2864 21.4847 18.5174 21.4847 17.7362V16.2225C21.5091 15.8319 21.3627 15.4413 21.0697 15.1362C20.7889 14.831 20.4105 14.6601 19.9833 14.6601H16.3458C16.1749 14.6601 15.9796 14.6601 15.7965 14.7089C15.1373 14.8554 14.6368 15.4901 14.649 16.1615V17.3089C14.649 18.2244 14.649 19.1521 14.649 20.0676C14.6612 20.8122 15.3326 21.4714 16.0772 21.4836H18.0791ZM16.4434 16.4423H19.7148V19.7136H16.4434V16.4423ZM6.51946 26C6.87345 26 7.21523 25.7803 7.3495 25.4507C7.49598 25.1211 7.41054 24.6939 7.12979 24.4498C6.9711 24.3033 6.75138 24.2178 6.47063 24.2178H2.8819C2.6988 24.2178 2.46688 24.2178 2.27157 24.108C1.97861 23.9493 1.78331 23.6319 1.78331 23.3023C1.78331 22.692 1.78331 22.0939 1.78331 21.4836C1.78331 20.7878 1.78331 20.092 1.78331 19.3962C1.7711 18.9568 1.35608 18.5662 0.904434 18.5662C0.831194 18.5662 0.757955 18.5784 0.684716 18.6028C0.281899 18.7005 0.00114736 19.0667 0.00114736 19.4573V23.1681C-0.0110592 23.6075 0.0743868 24.0347 0.245279 24.4009C0.660302 25.3408 1.62462 25.9756 2.64997 25.9878L6.51946 26ZM23.3157 26C24.4387 26 25.5007 25.231 25.8547 24.169C25.9645 23.8638 26.0134 23.5099 26.0011 23.0948V21.569C26.0011 20.8366 26.0011 20.1164 26.0011 19.3962C25.9889 18.9568 25.5739 18.5662 25.1223 18.5662C25.049 18.5662 24.988 18.5784 24.9148 18.5906C24.5364 18.6761 24.2312 19.0545 24.2434 19.4573C24.2434 19.4573 24.2434 22.5822 24.2434 23.2901C24.2434 23.5221 24.1458 23.754 23.9749 23.9371C23.804 24.108 23.572 24.2178 23.3279 24.2178H19.4462C19.1655 24.2178 18.8847 24.3887 18.726 24.6573C18.5673 24.9258 18.5551 25.231 18.6894 25.4873C18.8359 25.7803 19.1533 25.9878 19.4828 25.9878L23.3157 26Z" fill="#707B8C"/>
</svg>
